# xmcd
#
# Track frame offsets: 
#        150
#        10485
#        23280
#        33915
#        51125
#        63125
#        73155
#        86274
#        96194
#        106496
#        119318
#        132206
#        144429
#        153269
#        162864
#        171838
#
# Disc length: 2460 seconds
#
# Revision: 0
# Processed by: cddbd v1.4PL0 Copyright (c) Steve Scherf et al.
# Submitted via: ExactAudioCopy v0.90b4
#
DISCID=c4099a10
DTITLE=Eric "Two Scoops" Moore - Hungry!
DYEAR=2000
DGENRE=Humour
TTITLE0=Hungry!
TTITLE1=No Good for Nothin
TTITLE2=Auto Service Hell
TTITLE3=Save Me Some Time
TTITLE4=Bug Stomp
TTITLE5=Main Course
TTITLE6=My Castle
TTITLE7=Use Me Right
TTITLE8=Booze In The House
TTITLE9=Mud Pie
TTITLE10=Saxident
TTITLE11=You Came Walking In
TTITLE12=I Can Drink
TTITLE13=Bus Stop
TTITLE14=Whip It Out!
TTITLE15=Next Time...
EXTD=www.twoscoopscombo.com\n\nEric "Two Scoops" Moore - Lead vocals, 
EXTD=piano\n"Sax" Gordon Beadle - Tenor Saxophone, background vocals\n
EXTD=Jim King - Tenor Saxophone on tracks 3-5, 10, 11, harmonica on tr
EXTD=ack 6\nCutts Peaslee - Drums on tracks 3-5, 9-11, 15, 16\nJim Pia
EXTD=no - Drums on tracks 1, 2, 7, 8, 12-14\nGuy Quintino - Acoustic b
EXTD=ass on tracks 3-5, 10, 11\nBill Freckleton - Electric bass on tra
EXTD=cks 1, 2, 6-9, 12-15\nDave Conant - Guitar on tracks 6, 15\n\n"Sa
EXTD=x" Gordon appears courtesy of Bullseye Blues and Jazz\nAll Songs by
EXTD=Eric "Two Scoops" Moore copyright 1998 Clean Plate Records (ASCA
EXTD=P]\nexcept "No Good for Nothing", "Bug Stomp" and "Saxident" by E
EXTD=ric "Two Scoops" Moore\ncopyright 1998 Clean Plate Records (ASCAP
EXTD=) and "Sax" Gordon Beadle copyright 1998\nBonkey Music (BMI]\n\nA
EXTD=special thank you to all the waitresses, hostesses, chefs and ba
EXTD=rmaids who have treated me\nso well over the years.\n\nTracks 1-5
EXTD=, 7, 8, 10-14\nRecorded live by Kearney Barton on vintage gear at
EXTD=audio Recording, Seattle, WA\n\nTracks 6, 9,15,16\nRecorded by D
EXTD=on King at the super modern No Script Studio, Lynwood, MA\n\nMast
EXTD=ering by Barry Corliss at MasterWorks, Seattle, WA\n\nSpecial eff
EXTD=ects on track 8 courtesy of Raven Humphres, Blackwing Studio and St
EXTD=eve Bailey, Bluestown Records\n\nFront cover paintings by Roy Nyd
EXTD=orf, Professor of Art, Guilford College, Greensboro, NC (Amy's br
EXTD=other]\nBack cover drawings by Elsi Nydorf, Amy's Mom\n\nKearney 
EXTD=and Eric photo by Amy Moore\nLayout Design by William Maner Desig
EXTD=n Group with help by Bill Sears\n
EXTT0=
EXTT1=
EXTT2=
EXTT3=
EXTT4=
EXTT5=
EXTT6=
EXTT7=
EXTT8=
EXTT9=
EXTT10=
EXTT11=
EXTT12=
EXTT13=
EXTT14=
EXTT15=
PLAYORDER=
